<svg width="194" height="172" viewBox="0 0 194 172" fill="none" xmlns="http://www.w3.org/2000/svg">
<g opacity="0.1">
<g filter="url(#filter0_f_4066_6535)">
<g clip-path="url(#clip0_4066_6535)">
<path d="M66.2925 63.2682C66.3655 53.3994 71.0937 44.638 78.3901 39.0711C75.6058 33.6832 69.983 30 63.5 30C54.2493 30 46.75 37.4993 46.75 46.75C46.75 56.0007 54.2493 63.5 63.5 63.5C64.4515 63.5 65.3844 63.4207 66.2925 63.2682Z" fill="url(#paint0_radial_4066_6535)"/>
<path d="M75.1697 58.7662C75.9738 55.0403 77.7075 51.6603 80.116 48.8811C84.211 44.1557 90.2568 41.1667 97.0003 41.1667C103.744 41.1667 109.79 44.1557 113.885 48.8811C116.293 51.6603 118.027 55.0403 118.831 58.7662C119.16 60.292 119.334 61.8757 119.334 63.5C119.334 65.9734 118.932 68.3528 118.189 70.5766C116.2 76.5349 111.768 81.3756 106.082 83.9099C104.321 84.6944 102.438 85.2583 100.472 85.5654C99.3409 85.7418 98.1812 85.8334 97.0003 85.8334C95.8195 85.8334 94.6598 85.7418 93.5286 85.5654C91.5622 85.2583 89.68 84.6944 87.919 83.9099C82.2326 81.3756 77.8005 76.5349 75.8114 70.5766C75.0691 68.3528 74.667 65.9734 74.667 63.5C74.667 61.8757 74.8404 60.292 75.1697 58.7662Z" fill="url(#paint1_radial_4066_6535)"/>
<path d="M66.331 69.0833C66.4872 69.0833 66.643 69.0845 66.7986 69.0869C68.1332 76.3473 72.0212 82.7139 77.4973 87.2214C68.0084 91.5038 60.1803 98.8157 55.2453 107.923C43.6804 107.254 35.1876 105.422 34.419 105.252C31.724 104.658 30 102.278 30 99.7526C30 82.8144 43.731 69.0833 60.669 69.0833H66.331Z" fill="url(#paint2_radial_4066_6535)"/>
<path d="M159.582 105.252C158.814 105.422 150.321 107.254 138.756 107.923C133.821 98.8157 125.993 91.5038 116.504 87.2214C121.98 82.7139 125.868 76.3473 127.203 69.0869C127.358 69.0845 127.514 69.0833 127.671 69.0833H133.332C150.27 69.0833 164.001 82.8144 164.001 99.7526C164.001 102.277 162.278 104.658 159.582 105.252Z" fill="url(#paint3_radial_4066_6535)"/>
<path d="M115.609 39.0711C122.906 44.638 127.634 53.3994 127.707 63.2682C128.615 63.4207 129.548 63.5 130.5 63.5C139.751 63.5 147.25 56.0007 147.25 46.75C147.25 37.4993 139.751 30 130.5 30C124.017 30 118.394 33.6832 115.609 39.0711Z" fill="url(#paint4_radial_4066_6535)"/>
<path d="M106.726 92.6366C103.97 91.9309 101.097 91.5177 98.1421 91.4328C97.763 91.4222 97.3822 91.4167 97.0003 91.4167C96.6184 91.4167 96.2376 91.4222 95.8585 91.4328C92.9033 91.5177 90.0306 91.9309 87.2747 92.6366C78.0878 94.9889 70.2047 100.597 64.9276 108.159C60.5087 114.491 57.917 122.193 57.917 130.5V132.136C57.917 132.961 58.1029 134.098 58.8314 135.216C59.6162 136.419 60.8093 137.247 62.1379 137.59C63.1206 137.843 78.2204 141.667 97.0003 141.667C115.78 141.667 130.88 137.843 131.863 137.59C133.191 137.247 134.385 136.419 135.17 135.216C135.898 134.098 136.084 132.961 136.084 132.136V130.5C136.084 122.193 133.492 114.491 129.073 108.159C123.796 100.597 115.913 94.9889 106.726 92.6366Z" fill="url(#paint5_radial_4066_6535)"/>
</g>
</g>
</g>
<g clip-path="url(#clip1_4066_6535)">
<path d="M72.2507 61.6465C72.3095 53.6926 76.1203 46.6311 82.001 42.1444C79.7569 37.8019 75.2251 34.8333 70 34.8333C62.5442 34.8333 56.5 40.8775 56.5 48.3333C56.5 55.7892 62.5442 61.8333 70 61.8333C70.7668 61.8333 71.5188 61.7694 72.2507 61.6465Z" fill="url(#paint6_radial_4066_6535)"/>
<path d="M79.4052 58.018C80.0533 55.0151 81.4506 52.2909 83.3918 50.0509C86.6922 46.2424 91.5649 43.8333 97 43.8333C102.435 43.8333 107.308 46.2424 110.608 50.0509C112.549 52.2909 113.947 55.0151 114.595 58.018C114.86 59.2477 115 60.5242 115 61.8333C115 63.8268 114.676 65.7446 114.077 67.5369C112.475 72.339 108.903 76.2405 104.319 78.2831C102.9 78.9153 101.383 79.3698 99.7981 79.6173C98.8864 79.7595 97.9517 79.8333 97 79.8333C96.0483 79.8333 95.1136 79.7595 94.2019 79.6173C92.617 79.3698 91.1 78.9153 89.6807 78.2831C85.0976 76.2405 81.5255 72.339 79.9224 67.5369C79.324 65.7446 79 63.8268 79 61.8333C79 60.5242 79.1398 59.2477 79.4052 58.018Z" fill="url(#paint7_radial_4066_6535)"/>
<path d="M72.2817 66.3333C72.4076 66.3333 72.5332 66.3343 72.6586 66.3362C73.7342 72.1878 76.8679 77.3192 81.2814 80.952C73.6337 84.4035 67.3244 90.2967 63.3469 97.6371C54.026 97.0976 47.1811 95.6211 46.5616 95.4843C44.3895 95.0055 43 93.0872 43 91.0518C43 77.4002 54.0668 66.3333 67.7183 66.3333H72.2817Z" fill="url(#paint8_radial_4066_6535)"/>
<path d="M147.439 95.4843C146.82 95.6211 139.975 97.0976 130.654 97.6371C126.677 90.2967 120.367 84.4035 112.72 80.952C117.133 77.3192 120.267 72.1878 121.343 66.3362C121.468 66.3343 121.594 66.3333 121.72 66.3333H126.283C139.934 66.3333 151.001 77.4002 151.001 91.0518C151.001 93.0867 149.612 95.0055 147.439 95.4843Z" fill="url(#paint9_radial_4066_6535)"/>
<path d="M111.998 42.1444C117.879 46.6311 121.69 53.6926 121.748 61.6465C122.48 61.7694 123.232 61.8333 123.999 61.8333C131.455 61.8333 137.499 55.7892 137.499 48.3333C137.499 40.8775 131.455 34.8333 123.999 34.8333C118.774 34.8333 114.242 37.8019 111.998 42.1444Z" fill="url(#paint10_radial_4066_6535)"/>
<path d="M104.839 85.3166C102.617 84.7478 100.302 84.4148 97.9202 84.3464C97.6147 84.3378 97.3078 84.3333 97 84.3333C96.6922 84.3333 96.3853 84.3378 96.0798 84.3464C93.6979 84.4148 91.3826 84.7478 89.1614 85.3166C81.7571 87.2124 75.4036 91.7327 71.1503 97.8275C67.5888 102.93 65.5 109.138 65.5 115.833V117.152C65.5 117.817 65.6498 118.734 66.237 119.634C66.8695 120.604 67.8311 121.271 68.902 121.547C69.694 121.752 81.8639 124.833 97 124.833C112.136 124.833 124.306 121.752 125.098 121.547C126.169 121.271 127.131 120.604 127.763 119.634C128.35 118.734 128.5 117.817 128.5 117.152V115.833C128.5 109.138 126.411 102.93 122.85 97.8275C118.596 91.7327 112.243 87.2124 104.839 85.3166Z" fill="url(#paint11_radial_4066_6535)"/>
</g>
<defs>
<filter id="filter0_f_4066_6535" x="0" y="-11.1667" width="194" height="194" filterUnits="userSpaceOnUse" color-interpolation-filters="sRGB">
<feFlood flood-opacity="0" result="BackgroundImageFix"/>
<feBlend mode="normal" in="SourceGraphic" in2="BackgroundImageFix" result="shape"/>
<feGaussianBlur stdDeviation="15" result="effect1_foregroundBlur_4066_6535"/>
</filter>
<radialGradient id="paint0_radial_4066_6535" cx="0" cy="0" r="1" gradientUnits="userSpaceOnUse" gradientTransform="translate(84.4375 24.6503) rotate(135) scale(96.3957)">
<stop stop-color="#DC38D3"/>
<stop offset="1" stop-color="#3451C5"/>
</radialGradient>
<radialGradient id="paint1_radial_4066_6535" cx="0" cy="0" r="1" gradientUnits="userSpaceOnUse" gradientTransform="translate(105.84 55.125) rotate(135) scale(63.1682)">
<stop stop-color="#FF5A8B"/>
<stop offset="0.333333" stop-color="#B038DC"/>
<stop offset="0.666667" stop-color="#6D3DDE"/>
<stop offset="1" stop-color="#3451C5"/>
</radialGradient>
<radialGradient id="paint2_radial_4066_6535" cx="0" cy="0" r="1" gradientUnits="userSpaceOnUse" gradientTransform="translate(77.4583 67.9036) rotate(135) scale(102.343)">
<stop stop-color="#DC38D3"/>
<stop offset="1" stop-color="#3451C5"/>
</radialGradient>
<radialGradient id="paint3_radial_4066_6535" cx="0" cy="0" r="1" gradientUnits="userSpaceOnUse" gradientTransform="translate(116.543 98.3958) rotate(-18.166) scale(94.0194 94.0194)">
<stop stop-color="#DC38D3"/>
<stop offset="1" stop-color="#3451C5"/>
</radialGradient>
<radialGradient id="paint4_radial_4066_6535" cx="0" cy="0" r="1" gradientUnits="userSpaceOnUse" gradientTransform="translate(116.541 55.125) rotate(-21.9606) scale(93.312 93.312)">
<stop stop-color="#DC38D3"/>
<stop offset="1" stop-color="#3451C5"/>
</radialGradient>
<radialGradient id="paint5_radial_4066_6535" cx="0" cy="0" r="1" gradientUnits="userSpaceOnUse" gradientTransform="translate(97.0003 91.4167) rotate(122.227) scale(109.934 109.934)">
<stop stop-color="#DC38A0"/>
<stop offset="0.333333" stop-color="#B038DC"/>
<stop offset="0.666667" stop-color="#6D3DDE"/>
<stop offset="1" stop-color="#3451C5"/>
</radialGradient>
<radialGradient id="paint6_radial_4066_6535" cx="0" cy="0" r="1" gradientUnits="userSpaceOnUse" gradientTransform="translate(86.875 30.5216) rotate(135) scale(77.692)">
<stop stop-color="#DC38D3"/>
<stop offset="1" stop-color="#3451C5"/>
</radialGradient>
<radialGradient id="paint7_radial_4066_6535" cx="0" cy="0" r="1" gradientUnits="userSpaceOnUse" gradientTransform="translate(104.125 55.0833) rotate(135) scale(50.9117)">
<stop stop-color="#FF5A8B"/>
<stop offset="0.333333" stop-color="#B038DC"/>
<stop offset="0.666667" stop-color="#6D3DDE"/>
<stop offset="1" stop-color="#3451C5"/>
</radialGradient>
<radialGradient id="paint8_radial_4066_6535" cx="0" cy="0" r="1" gradientUnits="userSpaceOnUse" gradientTransform="translate(81.25 65.3825) rotate(135) scale(82.485)">
<stop stop-color="#DC38D3"/>
<stop offset="1" stop-color="#3451C5"/>
</radialGradient>
<radialGradient id="paint9_radial_4066_6535" cx="0" cy="0" r="1" gradientUnits="userSpaceOnUse" gradientTransform="translate(112.751 89.9583) rotate(-18.166) scale(75.7769 75.7768)">
<stop stop-color="#DC38D3"/>
<stop offset="1" stop-color="#3451C5"/>
</radialGradient>
<radialGradient id="paint10_radial_4066_6535" cx="0" cy="0" r="1" gradientUnits="userSpaceOnUse" gradientTransform="translate(112.749 55.0833) rotate(-21.9606) scale(75.2067 75.2067)">
<stop stop-color="#DC38D3"/>
<stop offset="1" stop-color="#3451C5"/>
</radialGradient>
<radialGradient id="paint11_radial_4066_6535" cx="0" cy="0" r="1" gradientUnits="userSpaceOnUse" gradientTransform="translate(97 84.3333) rotate(122.227) scale(88.6032 88.6032)">
<stop stop-color="#DC38A0"/>
<stop offset="0.333333" stop-color="#B038DC"/>
<stop offset="0.666667" stop-color="#6D3DDE"/>
<stop offset="1" stop-color="#3451C5"/>
</radialGradient>
<clipPath id="clip0_4066_6535">
<rect width="134" height="134" fill="white" transform="translate(30 18.8333)"/>
</clipPath>
<clipPath id="clip1_4066_6535">
<rect width="108" height="108" fill="white" transform="translate(43 25.8333)"/>
</clipPath>
</defs>
</svg>
