<svg width="60" height="77" viewBox="0 0 60 77" fill="none" xmlns="http://www.w3.org/2000/svg">
<path d="M39.5059 74H20.4939C11.105 74 3.49384 66.3888 3.49384 57L3.49384 36.5139C3.49384 33.3337 4.75616 30.2837 7.00351 28.0336L25.0472 9.96848C27.7815 7.23087 32.2182 7.23087 34.9525 9.96848L52.9962 28.0336C55.2435 30.2837 56.5059 33.3337 56.5059 36.5139L56.5059 57C56.5059 66.3888 48.8947 74 39.5059 74Z" fill="#D4C3E9"/>
<path d="M39.5059 74H20.4939C11.105 74 3.49384 66.3888 3.49384 57L3.49384 36.5139C3.49384 33.3337 4.75616 30.2837 7.00351 28.0336L25.0472 9.96848C27.7815 7.23087 32.2182 7.23087 34.9525 9.96848L52.9962 28.0336C55.2435 30.2837 56.5059 33.3337 56.5059 36.5139L56.5059 57C56.5059 66.3888 48.8947 74 39.5059 74Z" fill="url(#paint0_radial_1405_4570)"/>
<path d="M39.5059 74H20.4939C11.105 74 3.49384 66.3888 3.49384 57L3.49384 36.5139C3.49384 33.3337 4.75616 30.2837 7.00351 28.0336L25.0472 9.96848C27.7815 7.23087 32.2182 7.23087 34.9525 9.96848L52.9962 28.0336C55.2435 30.2837 56.5059 33.3337 56.5059 36.5139L56.5059 57C56.5059 66.3888 48.8947 74 39.5059 74Z" stroke="white" stroke-width="6"/>
<mask id="mask0_1405_4570" style="mask-type:alpha" maskUnits="userSpaceOnUse" x="0" y="4" width="60" height="73">
<path d="M20.4939 77H39.5059C50.5516 77 59.5059 68.0457 59.5059 57L59.5059 36.5139C59.5059 32.5387 57.928 28.7261 55.1188 25.9136L37.0751 7.84842C33.1689 3.93756 26.8308 3.93756 22.9246 7.84842L4.88092 25.9136C2.07174 28.7261 0.493843 32.5387 0.493843 36.5139L0.493843 57C0.493843 68.0457 9.44817 77 20.4939 77Z" fill="white"/>
</mask>
<g mask="url(#mask0_1405_4570)">
</g>
<defs>
<radialGradient id="paint0_radial_1405_4570" cx="0" cy="0" r="1" gradientUnits="userSpaceOnUse" gradientTransform="translate(46.279 -4.1643) rotate(110.136) scale(86.4484 72.2225)">
<stop stop-color="#F1EEF5" stop-opacity="0.9"/>
<stop offset="0.48561" stop-color="#EDE7F9" stop-opacity="0.8"/>
<stop offset="0.911103" stop-color="#D9CDF2"/>
<stop offset="1" stop-color="#D1B6FD" stop-opacity="0"/>
</radialGradient>
</defs>
</svg>
