<svg width="13" height="22" viewBox="0 0 13 22" fill="none" xmlns="http://www.w3.org/2000/svg">
<path fill-rule="evenodd" clip-rule="evenodd" d="M8.15723 0V4.50674V10.3561V11.45C8.29136 11.8238 8.85882 13.4104 9.0041 13.8099C9.27546 14.5718 10.8201 18.8726 10.9436 19.2167C11.0543 19.5254 11.3626 20.3836 11.4606 20.6582C11.5179 20.8171 11.6674 21.2329 11.7469 21.4547C11.809 21.6281 11.8035 21.6138 11.8419 21.7211C11.8971 21.743 12.427 21.9547 12.5031 21.9852C12.5051 21.986 12.5096 21.9878 12.515 21.99C12.5237 21.9934 12.5203 21.9919 12.5246 21.9936C12.5337 21.9972 12.5367 21.9985 12.54 21.9998C12.54 21.8355 12.5401 21.5924 12.5401 21.3323V0H8.15723Z" fill="url(#paint0_linear_1405_4589)"/>
<path fill-rule="evenodd" clip-rule="evenodd" d="M0 1.52871V3.05954V8.80189V21.9998C1.74105 21.7936 2.61181 21.7135 4.38291 21.634V17.493V11.6437V10.5498C4.24878 10.176 0.872671 0.766912 0.793208 0.545108C0.731031 0.371731 0.736635 0.386013 0.698125 0.278754C0.642983 0.256833 0.113085 0.0451367 0.0370791 0.0145754C0.0163935 0.00640612 0.0197914 0.00787541 0.0156185 0.00617103C0.00643818 0.00258596 0.00345754 0.00129298 0.000178838 0C0.000119226 0.164208 5.96128e-05 0.407406 0 0.667471V1.52871Z" fill="url(#paint1_linear_1405_4589)"/>
<path fill-rule="evenodd" clip-rule="evenodd" d="M4.47745 0H0L7.9285 21.6341C10.1566 21.6884 12.54 22 12.54 22L4.47745 0Z" fill="#E50914"/>
<defs>
<linearGradient id="paint0_linear_1405_4589" x1="9.92035" y1="17.136" x2="11.7152" y2="16.61" gradientUnits="userSpaceOnUse">
<stop offset="0.34375" stop-color="#7C020D"/>
<stop offset="1" stop-color="#B20710"/>
</linearGradient>
<linearGradient id="paint1_linear_1405_4589" x1="3.52" y1="6.3525" x2="1.254" y2="7.00324" gradientUnits="userSpaceOnUse">
<stop offset="0.514513" stop-color="#7C020D"/>
<stop offset="1" stop-color="#B20710"/>
</linearGradient>
</defs>
</svg>
