<svg width="16" height="16" viewBox="0 0 16 16" fill="none" xmlns="http://www.w3.org/2000/svg">
<g clip-path="url(#clip0_1333_11965)">
<path fill-rule="evenodd" clip-rule="evenodd" d="M5.56757 1.2953C5.66994 0.553093 6.30427 0.000244141 7.0535 0.000244141H8.94561C9.69484 0.000244141 10.3291 0.553086 10.4315 1.29529L10.6526 2.89814C10.8024 2.97621 10.9483 3.06065 11.0899 3.15108L12.589 2.54093C13.283 2.25847 14.0789 2.5314 14.4536 3.18025L15.3996 4.81887C15.7742 5.46772 15.6126 6.29349 15.021 6.75324L13.7424 7.74694C13.7461 7.8306 13.7479 7.91465 13.7479 7.99906C13.7479 8.08339 13.7461 8.16736 13.7424 8.25094L15.0211 9.24466C15.6126 9.70442 15.7742 10.5302 15.3996 11.179L14.4536 12.8175C14.079 13.4664 13.2831 13.7393 12.5891 13.4569L11.0903 12.8468C10.9485 12.9374 10.8025 13.0219 10.6526 13.1L10.4315 14.7026C10.3291 15.4448 9.69484 15.9976 8.94561 15.9976H7.05361C6.30439 15.9976 5.67006 15.4448 5.56768 14.7026L5.34675 13.1009C5.1964 13.0226 5.05001 12.9379 4.90793 12.8472L3.41001 13.4569C2.71606 13.7393 1.92012 13.4664 1.5455 12.8176L0.599502 11.179C0.22489 10.5302 0.386496 9.70442 0.978068 9.24466L2.25521 8.25209C2.25156 8.16814 2.24972 8.08378 2.24972 7.99906C2.24972 7.91426 2.25156 7.82982 2.25522 7.74579L0.978092 6.75324C0.386513 6.29349 0.224903 5.46772 0.599517 4.81887L1.54557 3.18025C1.92019 2.5314 2.71614 2.25847 3.41009 2.54093L4.90825 3.1507C5.05018 3.06009 5.19643 2.97549 5.34662 2.89729L5.56757 1.2953ZM6.71604 3.94703L7.0535 1.50024H8.94561L9.28312 3.94719C9.87763 4.13548 10.4156 4.45135 10.8649 4.86215L13.1545 3.93025L14.1006 5.56887L12.1508 7.08414L12.1494 7.08528C12.2139 7.37961 12.2479 7.68537 12.2479 7.99906C12.2479 7.99875 12.2479 7.99937 12.2479 7.99906C12.2478 8.31235 12.2138 8.61865 12.1494 8.91262L12.1512 8.91404L14.1006 10.429L13.1546 12.0676L10.8675 11.1367L10.8652 11.1357C10.4158 11.5467 9.87777 11.8623 9.28313 12.0506L9.28281 12.0529L8.94561 14.4976H7.05361L6.71637 12.0528L6.71615 12.0511C6.12106 11.8629 5.58262 11.5473 5.13289 11.1362L5.13193 11.1366L2.84454 12.0676L1.89854 10.429L3.84827 8.91374C3.80955 8.73722 3.78192 8.55648 3.7659 8.37248C3.75518 8.24944 3.74972 8.12489 3.74972 7.99906C3.74972 7.685 3.78379 7.3789 3.84844 7.08426L1.89856 5.56887L2.84461 3.93025L5.13313 4.86172C5.58279 4.45077 6.1211 4.1352 6.71604 3.94703ZM6.11344 10.001C6.12365 10.0107 6.13393 10.0202 6.14428 10.0297C6.4351 10.2957 6.78328 10.5 7.16811 10.622C7.18298 10.6267 7.1979 10.6313 7.21287 10.6358C7.46218 10.7101 7.72633 10.75 7.9998 10.75C8.26931 10.75 8.52976 10.7112 8.77588 10.639C8.79425 10.6336 8.81255 10.628 8.83075 10.6222C9.21554 10.5004 9.5637 10.2962 9.85454 10.0304C9.87094 10.0154 9.88714 10.0002 9.90317 9.98487C10.2755 9.62774 10.5475 9.16688 10.6728 8.64873C10.6774 8.62988 10.6817 8.61096 10.6859 8.59197C10.7277 8.4013 10.7498 8.20323 10.7498 8C10.7498 7.99969 10.7498 8.00031 10.7498 8C10.7497 7.79642 10.7275 7.59707 10.6855 7.4061C10.6819 7.38964 10.6781 7.37324 10.6742 7.35689C10.5474 6.8277 10.2676 6.35799 9.88423 5.99713C9.87404 5.98754 9.86378 5.97803 9.85345 5.9686C9.60707 5.74366 9.31963 5.56293 9.00368 5.43899C8.69269 5.31699 8.35407 5.25 7.9998 5.25C6.48102 5.25 5.2498 6.48122 5.2498 8C5.2498 8.78856 5.58171 9.4996 6.11344 10.001ZM7.9998 9.25C8.69016 9.25 9.2498 8.69036 9.2498 8C9.2498 7.30964 8.69016 6.75 7.9998 6.75C7.30945 6.75 6.7498 7.30964 6.7498 8C6.7498 8.69036 7.30944 9.25 7.9998 9.25Z" fill="white"/>
</g>
<defs>
<clipPath id="clip0_1333_11965">
<rect width="16" height="16" fill="white"/>
</clipPath>
</defs>
</svg>
