<svg width="19" height="22" viewBox="0 0 19 22" fill="none" xmlns="http://www.w3.org/2000/svg">
<rect y="2.03125" width="19" height="19" rx="9.44444" fill="#FF0000"/>
<path d="M9.7 11.4007C10.2653 10.8994 10.6493 10.4887 10.852 10.1687C11.0653 9.83808 11.172 9.47542 11.172 9.08075C11.172 8.62208 11.0067 8.23808 10.676 7.92875C10.356 7.61942 9.90267 7.46475 9.316 7.46475C8.76133 7.46475 8.308 7.60342 7.956 7.88075C7.604 8.15808 7.38533 8.51542 7.3 8.95275H5.252C5.35867 8.30208 5.59333 7.72608 5.956 7.22475C6.31867 6.71275 6.788 6.31275 7.364 6.02475C7.95067 5.73675 8.61733 5.59275 9.364 5.59275C10.132 5.59275 10.8093 5.74208 11.396 6.04075C11.9933 6.32875 12.4573 6.73408 12.788 7.25675C13.1293 7.76875 13.3 8.36608 13.3 9.04875C13.3 9.76342 13.108 10.3981 12.724 10.9527C12.34 11.4967 11.796 12.0727 11.092 12.6807L8.228 15.1447H13.428V16.9688H5.316V15.2727L9.7 11.4007Z" fill="white"/>
</svg>
