<svg width="72" height="29" viewBox="0 0 72 29" fill="none" xmlns="http://www.w3.org/2000/svg">
<path d="M46.4894 24.6128C46.4894 24.2763 46.5885 23.9883 46.7867 23.7486C46.9895 23.5089 47.2707 23.3268 47.6302 23.2024C47.9897 23.0733 48.4092 23.0088 48.8885 23.0088C49.3494 23.0088 49.7574 23.0687 50.1123 23.1885C50.4672 23.3038 50.7576 23.472 50.9834 23.6933C51.2093 23.9099 51.3568 24.1726 51.4259 24.4814H50.1261C50.0063 24.1404 49.5845 23.9698 48.8609 23.9698C48.5013 23.9698 48.2248 24.0136 48.0312 24.1012C47.8422 24.1841 47.7477 24.3063 47.7477 24.4676C47.7477 24.6105 47.8284 24.7211 47.9897 24.7995C48.151 24.8778 48.4368 24.9331 48.847 24.9654L49.5661 25.0276C50.2206 25.0783 50.7069 25.2258 51.0249 25.4701C51.3429 25.7144 51.502 26.0509 51.502 26.4795C51.502 26.8068 51.4006 27.0903 51.1977 27.33C50.9995 27.5696 50.7115 27.754 50.3335 27.8831C49.9602 28.0075 49.5131 28.0697 48.9922 28.0697C48.2409 28.0697 47.6325 27.9361 47.167 27.6687C46.706 27.4014 46.418 27.0188 46.3027 26.521H47.6025C47.6671 26.71 47.8238 26.8552 48.0727 26.9566C48.3262 27.058 48.6581 27.1087 49.0683 27.1087C49.8518 27.1087 50.2436 26.9266 50.2436 26.5625C50.2436 26.415 50.1584 26.2998 49.9878 26.2168C49.8219 26.1339 49.5407 26.0762 49.1443 26.044L48.4115 25.9817C47.1301 25.8711 46.4894 25.4148 46.4894 24.6128Z" fill="white"/>
<path d="M40.4189 23.1333H45.0028V24.122H41.6773V25.0139H44.8922V26.0026H41.6773V26.9567H45.0512V27.9453H40.4189V23.1333Z" fill="white"/>
<path d="M31.8242 23.1333H33.2416L35.212 25.6154L37.1548 23.1333H38.5514V27.9453H37.3346V24.6267L35.1913 27.3369L33.0272 24.606V27.9453H31.8242V23.1333Z" fill="white"/>
<path d="M26.7976 23.1333H28.0974L30.5518 27.9453H29.2036L28.7404 26.9981H26.0786L25.6153 27.9453H24.3501L26.7976 23.1333ZM27.4129 24.2672L26.5487 26.0371H28.2703L27.4129 24.2672Z" fill="white"/>
<path d="M17.9375 26.8736C17.6748 26.4911 17.5435 26.0463 17.5435 25.5393C17.5435 25.1613 17.6195 24.8179 17.7716 24.5091C17.9237 24.2003 18.1357 23.9352 18.4077 23.714C18.6842 23.4881 19.0115 23.3153 19.3895 23.1955C19.772 23.071 20.1915 23.0088 20.6478 23.0088C21.3622 23.0088 21.9637 23.1494 22.4523 23.4305C22.9409 23.7071 23.2681 24.092 23.4341 24.5851H22.0444C21.9476 24.41 21.7747 24.2717 21.5258 24.1703C21.2769 24.0689 20.9819 24.0182 20.6409 24.0182C20.2767 24.0182 19.9587 24.0804 19.6868 24.2049C19.4148 24.3293 19.2028 24.5045 19.0507 24.7303C18.8986 24.9562 18.8225 25.2258 18.8225 25.5393C18.8225 25.8527 18.8963 26.1246 19.0438 26.3551C19.1959 26.5809 19.4056 26.7561 19.6729 26.8805C19.9449 27.0004 20.2629 27.0603 20.627 27.0603C20.922 27.0603 21.1871 27.0234 21.4221 26.9497C21.6572 26.8713 21.8439 26.7676 21.9822 26.6386C22.125 26.5049 22.1965 26.3574 22.1965 26.1961V26.1339H20.7031V25.1867H23.5654V25.7536C23.5654 26.2145 23.441 26.6201 23.1921 26.9704C22.9478 27.3161 22.6044 27.5858 22.1619 27.7794C21.724 27.9729 21.2147 28.0697 20.634 28.0697C20.0301 28.0697 19.4955 27.966 19.0299 27.7586C18.5644 27.5466 18.2003 27.2516 17.9375 26.8736Z" fill="white"/>
<mask id="mask0_1409_7104" style="mask-type:alpha" maskUnits="userSpaceOnUse" x="0" y="0" width="72" height="20">
<path d="M10.2545 17.9095V0H7.25619V10.8694L3.35839 0H0.5V19.1461C1.51943 18.9865 2.47889 18.8469 3.55828 18.7272V8.27669L6.97635 18.3084C8.11571 18.1489 9.1951 18.089 10.2545 17.9095ZM16.1712 7.02022V2.99157H21.4682V0H13.1729V17.6702L21.4682 17.0121V14.1402C19.6892 14.2 17.9302 14.3396 16.1712 14.4593V10.0118C17.2905 9.95197 18.8497 9.95197 20.1689 9.95197V6.96039C19.1095 6.96039 17.3305 7.02022 16.1712 7.02022ZM32.6219 2.99157V0H23.4071V2.99157H26.5054V16.7927C27.4848 16.7528 28.5042 16.7528 29.5037 16.7528V2.99157H32.6219ZM37.4992 6.80084V2.99157H42.9361V0H34.5408V16.5933H37.4992V9.79242H41.5968V6.80084H37.4992ZM47.7934 13.9607V0H44.795V16.7927C47.5335 16.8525 50.212 17.0121 52.8905 17.1916V14.2199C51.2314 14.1402 49.5124 14.0006 47.7934 13.9607ZM55.4291 17.391C56.3885 17.4508 57.388 17.4907 58.3674 17.6104V0H55.4291V17.391ZM71.5 0H68.2218L66.123 5.02584L64.1641 0H60.926L64.424 8.99466L60.5662 17.7699C61.6455 17.9095 62.7049 17.9694 63.7843 18.1489L65.9831 13.0632L68.1219 18.6076C69.2613 18.7871 70.3806 18.9865 71.5 19.1461L67.7021 9.11433L71.5 0Z" fill="#E50914"/>
</mask>
<g mask="url(#mask0_1409_7104)">
<path d="M10.2545 17.9095V0H7.25619V10.8694L3.35839 0H0.5V19.1461C1.51943 18.9865 2.47889 18.8469 3.55828 18.7272V8.27669L6.97635 18.3084C8.11571 18.1489 9.1951 18.089 10.2545 17.9095ZM16.1712 7.02022V2.99157H21.4682V0H13.1729V17.6702L21.4682 17.0121V14.1402C19.6892 14.2 17.9302 14.3396 16.1712 14.4593V10.0118C17.2905 9.95197 18.8497 9.95197 20.1689 9.95197V6.96039C19.1095 6.96039 17.3305 7.02022 16.1712 7.02022ZM32.6219 2.99157V0H23.4071V2.99157H26.5054V16.7927C27.4848 16.7528 28.5042 16.7528 29.5037 16.7528V2.99157H32.6219ZM37.4992 6.80084V2.99157H42.9361V0H34.5408V16.5933H37.4992V9.79242H41.5968V6.80084H37.4992ZM47.7934 13.9607V0H44.795V16.7927C47.5335 16.8525 50.212 17.0121 52.8905 17.1916V14.2199C51.2314 14.1402 49.5124 14.0006 47.7934 13.9607ZM55.4291 17.391C56.3885 17.4508 57.388 17.4907 58.3674 17.6104V0H55.4291V17.391ZM71.5 0H68.2218L66.123 5.02584L64.1641 0H60.926L64.424 8.99466L60.5662 17.7699C61.6455 17.9095 62.7049 17.9694 63.7843 18.1489L65.9831 13.0632L68.1219 18.6076C69.2613 18.7871 70.3806 18.9865 71.5 19.1461L67.7021 9.11433L71.5 0Z" fill="#E50914"/>
</g>
</svg>
